<svg  xmlns="http://www.w3.org/2000/svg" xmlns:xlink="http://www.w3.org/1999/xlink" >
	<defs>
		<symbol id="ArrowDown" viewBox="0 0 111.2 86.3">
			<path d="M 90 24.25 c 0 -0.896 -0.342 -1.792 -1.025 -2.475 c -1.366 -1.367 -3.583 -1.367 -4.949 0 L 45 60.8 L 5.975 21.775 c -1.367 -1.367 -3.583 -1.367 -4.95 0 c -1.366 1.367 -1.366 3.583 0 4.95 l 41.5 41.5 c 1.366 1.367 3.583 1.367 4.949 0 l 41.5 -41.5 C 89.658 26.042 90 25.146 90 24.25 z" 
				style="stroke: none; stroke-width: 1; stroke-dasharray: none; stroke-linecap: butt; stroke-linejoin: miter; stroke-miterlimit: 10; fill-rule: nonzero; opacity: 1;" 
				transform=" matrix(1 0 0 1 0 0) " 
				stroke-linecap="round" />
		</symbol>
		<symbol id="ArrowLeft" viewBox="0 0 111.2 86.3">
			<path d="M 59.51 10.921 c -0.63 0.537 -0.708 1.483 -0.171 2.114 L 85.255 43.5 H 1.5 C 0.671 43.5 0 44.171 0 45 s 0.671 1.5 1.5 1.5 h 83.755 L 59.339 76.965 c -0.536 0.63 -0.461 1.577 0.171 2.114 c 0.631 0.537 1.577 0.46 2.114 -0.17 l 28.019 -32.938 c 0.014 -0.016 0.019 -0.038 0.032 -0.054 c 0.07 -0.09 0.138 -0.182 0.187 -0.288 c 0.012 -0.026 0.016 -0.053 0.026 -0.079 c 0.013 -0.032 0.022 -0.063 0.032 -0.095 C 89.968 45.306 90 45.153 90 45 c 0 0 0 0 0 0 s 0 0 0 0 c 0 -0.153 -0.032 -0.306 -0.08 -0.455 c -0.01 -0.032 -0.019 -0.063 -0.032 -0.094 c -0.01 -0.026 -0.015 -0.053 -0.027 -0.079 c -0.049 -0.106 -0.117 -0.198 -0.187 -0.288 c -0.013 -0.017 -0.018 -0.038 -0.032 -0.054 L 61.624 11.092 C 61.087 10.461 60.141 10.384 59.51 10.921 z" 
				style="stroke: none; stroke-width: 1; stroke-dasharray: none; stroke-linecap: butt; stroke-linejoin: miter; stroke-miterlimit: 10;  fill-rule: nonzero; opacity: 1;" 
				transform=" matrix(1 0 0 1 0 0) " 
				stroke-linecap="round" />
		</symbol>
		<symbol id="MobileMenu" viewBox="0 0 48 32">
            <path d="M0 5.333V0h48v5.333H0zm0 13.334h48v-5.333H0v5.333zM0 32h48v-5.333H0V32z"/>
        </symbol>
		<symbol id="Logo" x="0px" y="0px" viewBox="0 0 111.2 86.3" style="enable-background:new 0 0 111.2 86.3;" xml:space="preserve">
			<style type="text/css">
				.st0{fill:#010202;}
			</style>
			<path class="st0" d="M107.4,37c-0.8-1.7-1.9-3.3-3.1-4.8c-1.2-1.5-2.6-2.8-4.2-4c-3-2.3-6.6-4.1-10.6-5.3c-0.7-0.2-1.4-0.4-2.1-0.6
				c0.5-1,0.9-1.9,1.1-2.9c0.6-1.9,0.7-3.9,0.5-5.9c-0.2-1.8-0.7-3.5-1.4-5c-0.8-1.5-1.8-2.8-3-4c-2-1.8-4.8-2.7-7.8-2.7
				c-1.2,0-2.1,0.1-2.6,0.2c-3.5,0.6-7,1.4-10.2,2.3c-3.4,1-6.5,2.1-9.2,3.4c0,0,0,0,0,0c-5.1,2.3-9.8,5.1-14.1,8.3
				c-2,1.5-3.9,3-5.7,4.6c-0.2-0.6-0.4-1.1-0.7-1.6c-0.8-1.7-2-3-3.5-4.1l0,0c-1.2-0.9-2.7-1.5-4.2-1.9l0,0c-1.3-0.3-2.7-0.5-4.1-0.5
				c-2.3,0-4.4,0.4-6.2,1.3c-1.7,0.8-3.2,1.9-4.4,3.2c-1.1,1.3-2,2.7-2.5,4.3l0,0c-0.5,1.4-0.7,2.8-0.7,4.1c0,1.7,0.3,3.2,0.8,4.7
				c0.2,0.5,0.4,1,0.7,1.5c-0.1,0-0.1,0.1-0.2,0.1c0,0,0,0,0,0c-1.5,1.3-2.6,3.1-3.1,5c0,0.1,0,0.1,0,0.2c-0.4,1.7-0.9,3.5-1.4,5.5
				c-0.6,2.1-1.1,4.3-1.6,6.4c-0.5,2.2-1,4.4-1.3,6.4c-0.4,2.4-0.6,4.4-0.6,6.3c0,1.6,0.2,3.2,0.5,4.6c0.5,1.9,1.3,3.6,2.5,5
				c1.2,1.5,2.8,2.6,4.7,3.4c1.7,0.7,3.6,1,5.7,1c2.1,0,4.2-0.4,6.4-1.1l0,0c1.5-0.5,3-1.1,4.5-1.8c0.9,1,2,1.9,3,2.8
				c3.5,2.8,7.6,5,12.3,6.6c4.6,1.5,9.7,2.4,15.1,2.6c0,0,0,0,0,0l0.3,0c0.8,0,1.5,0,2.1,0c2,0,3.9-0.1,5.8-0.3
				c2.1-0.2,4.2-0.6,6.7-1.1c0,0,0.1,0,0.1,0l2.9-0.7c1.5-0.4,2.9-1.1,4-2.2c0.3-0.3,0.6-0.7,0.9-1.1c0.8,0.2,1.5,0.3,2.3,0.3
				c1.4,0,2.8-0.3,4-1l1.7-0.9c0,0,0,0,0,0c3.2-1.7,6.1-3.6,8.8-5.7c2.7-2.1,5-4.4,6.9-6.9c2-2.5,3.6-5.2,4.7-8
				c1.2-2.9,1.8-5.9,1.9-8.9c0,0,0,0,0,0c0.1-2-0.1-3.9-0.5-5.8C108.8,40.5,108.2,38.7,107.4,37z M15.8,23.4c0.2-0.7,0.6-1.3,1.1-1.9
				c0.5-0.6,1.2-1.1,2.1-1.5c0.9-0.4,2-0.6,3.2-0.6c0.8,0,1.6,0.1,2.3,0.3c0.7,0.2,1.3,0.5,1.9,0.9c0.5,0.4,1,0.9,1.3,1.5
				c0.3,0.6,0.5,1.4,0.5,2.2c0,0.8-0.1,1.6-0.4,2.3c-0.3,0.7-0.7,1.4-1.2,2c-0.3,0.3-0.7,0.7-1.2,0.9c-0.3,0.2-0.6,0.3-1,0.5
				c-0.8,0.4-1.9,0.5-3,0.5c-2,0-3.5-0.5-4.5-1.4c-0.2-0.2-0.4-0.5-0.6-0.7c-0.6-0.9-0.9-1.9-0.9-3.1C15.4,24.7,15.6,24.1,15.8,23.4z
				M19.5,67.6c-1.5,0.5-2.9,0.7-4.3,0.7c-1.2,0-2.2-0.2-3-0.5c-0.8-0.3-1.5-0.8-2-1.4c-0.5-0.6-0.9-1.3-1.1-2.2
				c-0.2-0.9-0.3-1.8-0.3-2.9c0-1.5,0.2-3.2,0.5-5.1c0.3-1.9,0.7-3.9,1.2-6c0.5-2.1,1-4.1,1.5-6.2c0.5-2.1,1-4,1.4-5.7
				c0.2-0.6,0.5-1.1,1-1.5c0.2-0.2,0.5-0.4,0.7-0.5c0.3-0.2,0.6-0.4,0.9-0.5c0.6-0.3,1.3-0.5,1.9-0.6c0.7-0.1,1.3-0.2,1.8-0.2
				c1,0,1.6,0.2,2,0.5c0.2,0.3,0.4,0.6,0.5,0.9c0,0.2,0,0.3,0,0.5c0,0.2,0,0.3,0,0.5c0,0.4-0.2,1-0.3,1.7c-0.2,1-0.5,2.1-0.9,3.3
				c-0.3,1.2-0.7,2.5-1.1,3.9c-0.4,1.4-0.8,2.8-1.1,4.2c-0.2,1-0.5,2-0.6,2.9c-0.1,0.4-0.2,0.8-0.2,1.2c-0.2,1.3-0.3,2.5-0.3,3.6
				c0,1,0.1,1.9,0.3,2.5c0.2,0.6,0.7,0.9,1.4,0.9c0.1,0,0.1,0,0.2,0c3.9-0.1,4.6,3.9,4.2,4.1c-0.6,0.4-1.3,0.6-2,0.9
				C21.1,67.1,20.3,67.4,19.5,67.6z M75.9,65.1C75.8,65.1,75.8,65.1,75.9,65.1C75.8,65.2,75.8,65.2,75.9,65.1c0,0.1,0,0.1,0,0.1
				c0,0,0,0,0,0c0,0,0,0.1,0,0.1l-1.4,6.3l-0.6,2.6l-0.1,0.4c0,0,0,0.1,0,0.1c0,0.2-0.1,0.3-0.2,0.4c0,0,0,0-0.1,0.1
				c0,0-0.1,0.1-0.1,0.1c-0.1,0.1-0.2,0.2-0.4,0.2c0,0-0.1,0-0.1,0l-2.9,0.7c-0.1,0-0.3,0.1-0.4,0.1c0,0,0,0-0.1,0
				c-0.1,0-0.2,0.1-0.4,0.1c0,0,0,0-0.1,0c-0.1,0-0.2,0-0.4,0.1l0,0c-0.1,0-0.2,0-0.4,0.1c0,0,0,0-0.1,0c-0.1,0-0.2,0-0.3,0.1
				c0,0,0,0-0.1,0c-0.1,0-0.2,0-0.3,0.1c0,0,0,0,0,0c-0.1,0-0.2,0-0.3,0.1c0,0,0,0-0.1,0c-0.1,0-0.2,0-0.3,0.1c0,0,0,0-0.1,0
				c-0.1,0-0.2,0-0.3,0.1c0,0,0,0,0,0c-0.1,0-0.2,0-0.3,0c0,0,0,0,0,0c-0.1,0-0.2,0-0.3,0c0,0,0,0-0.1,0c-0.1,0-0.2,0-0.3,0
				c0,0,0,0,0,0c-0.1,0-0.2,0-0.3,0c0,0,0,0,0,0c-0.1,0-0.2,0-0.3,0c0,0,0,0-0.1,0c-0.1,0-0.2,0-0.3,0l0,0c-0.1,0-0.2,0-0.3,0l0,0
				c-0.1,0-0.2,0-0.3,0c0,0,0,0-0.1,0c-0.1,0-0.2,0-0.3,0c0,0,0,0,0,0c-0.1,0-0.2,0-0.3,0c0,0,0,0,0,0c-0.1,0-0.2,0-0.3,0
				c0,0,0,0-0.1,0c-0.1,0-0.2,0-0.3,0c0,0,0,0,0,0c-0.1,0-0.2,0-0.3,0c0,0,0,0,0,0c-0.1,0-0.2,0-0.3,0c0,0,0,0,0,0c-0.1,0-0.2,0-0.3,0
				c0,0,0,0,0,0c-0.1,0-0.2,0-0.3,0l0,0c-0.1,0-0.2,0-0.3,0c0,0,0,0,0,0c-0.1,0-0.2,0-0.3,0c0,0,0,0,0,0c-0.2,0-0.4,0-0.6,0
				c0,0,0,0,0,0c-0.1,0-0.2,0-0.3,0c0,0,0,0,0,0c-0.2,0-0.4,0-0.6,0h0c-0.2,0-0.3,0-0.5,0l0,0c-0.2,0-0.3,0-0.5,0l0,0
				c-0.2,0-0.3,0-0.5,0l0,0c-0.2,0-0.3,0-0.5,0h0l-0.3,0c-1.6-0.1-3.2-0.2-4.7-0.4c-0.5-0.1-1-0.1-1.5-0.2c-0.2,0-0.4-0.1-0.6-0.1
				c-0.9-0.2-1.8-0.3-2.7-0.5c-0.8-0.2-1.7-0.4-2.5-0.6c-0.2-0.1-0.4-0.1-0.6-0.2c-4.8-1.5-8.8-3.8-11.9-6.7c-0.1-0.1-0.2-0.2-0.3-0.3
				c-1.4-1.5-2.6-3.1-3.6-4.8c-0.1-0.2-0.2-0.3-0.3-0.5c-0.9-1.6-1.7-3.3-2.2-5c-0.1-0.2-0.1-0.4-0.2-0.6c-0.4-1.9-0.6-3.8-0.6-5.8
				c0-0.2,0-0.5,0-0.7c0.1-1.6,0.4-3.3,0.8-4.9c0-0.1,0.1-0.3,0.1-0.4c0.1-0.3,0.2-0.6,0.3-0.9c0,0,0,0,0,0c0.1-0.2,0.1-0.4,0.2-0.6
				c0.2-0.5,0.3-1,0.5-1.5c0.6-1.5,1.3-3,2.1-4.5c5.1-9.1,14.6-17.7,26.7-23.5c0.5-0.2,1-0.5,1.5-0.7c0.1,0,0.1-0.1,0.2-0.1
				c0.1-0.1,0.2-0.1,0.3-0.2c0.2-0.1,0.5-0.2,0.7-0.3c0.1,0,0.2-0.1,0.4-0.1c0.2-0.1,0.4-0.2,0.6-0.3c3.2-1.3,6.7-2.4,10.5-3.2
				c0.2,0,0.4-0.1,0.6-0.1c1.5-0.3,3-0.6,4.5-0.9c0,0,0.1,0,0.2,0h0c0,0,0,0,0,0l0,0l0,0c0,0,0,0,0,0c0,0,0,0,0,0c0,0,0,0,0,0
				c0,0,0,0,0,0c0,0,0,0,0,0l0,0c0,0,0,0,0,0l0,0c0,0,0,0,0,0c0,0,0,0,0.1,0c0,0,0,0,0,0c0,0,0,0,0,0c0,0,0,0,0,0c0,0,0,0,0,0l0,0l0,0
				c0,0,0,0,0,0c0,0,0,0,0,0l0,0c0,0,0,0,0,0c0,0,0,0,0,0c0,0,0,0,0,0c0,0,0,0,0,0c0,0,0,0,0,0c0,0,0,0,0,0c0,0,0,0,0,0c0,0,0,0,0.1,0
				c0,0,0,0,0,0l0,0c0,0,0,0,0,0l0,0c0,0,0,0,0,0c0,0,0,0,0,0c0,0,0,0,0,0c0,0,0,0,0,0c0,0,0,0,0.1,0l0,0c0,0,0,0,0.1,0c0,0,0,0,0,0
				c0,0,0,0,0.1,0c0,0,0,0,0,0c0,0,0.1,0,0.1,0l0,0c0.1,0,0.1,0,0.2,0c0,0,0,0,0,0c0,0,0.1,0,0.1,0c0,0,0,0,0,0c0,0,0,0,0.1,0
				c0,0,0,0,0,0c0,0,0,0,0.1,0c0,0,0,0,0,0c0,0,0,0,0.1,0c0,0,0,0,0,0c0,0,0,0,0.1,0c0,0,0,0,0,0c0,0,0,0,0.1,0c0,0,0,0,0,0
				c0,0,0.1,0,0.1,0c0,0,0,0,0,0c0.1,0,0.1,0,0.2,0c0,0,0,0,0,0c0,0,0.1,0,0.1,0c0,0,0,0,0,0c0,0,0,0,0.1,0c0,0,0,0,0,0c0,0,0,0,0.1,0
				c0,0,0,0,0,0c0,0,0,0,0.1,0c0,0,0,0,0,0c0,0,0,0,0.1,0c0,0,0,0,0,0c0,0,0,0,0.1,0c0,0,0,0,0,0c0,0,0.1,0,0.1,0c0,0,0,0,0,0
				c0.1,0,0.1,0.1,0.2,0.1c0,0,0,0,0,0c0,0,0,0,0.1,0c0,0,0,0,0,0c0,0,0,0,0.1,0c0,0,0,0,0,0c0,0,0,0,0.1,0c0,0,0,0,0,0c0,0,0,0,0.1,0
				c0,0,0,0,0,0c0,0,0,0,0.1,0c0,0,0,0,0,0c0,0,0,0,0.1,0c0,0,0,0,0,0c0,0,0,0,0.1,0c0,0,0,0,0,0c0,0,0.1,0,0.1,0.1
				c0.4,0.3,0.7,0.7,1,1.1c0.2,0.3,0.3,0.5,0.5,0.8c0.1,0.3,0.2,0.6,0.3,0.9c0,0.1,0,0.1,0.1,0.2c0.1,0.3,0.1,0.5,0.2,0.8
				c0,0.1,0,0.1,0,0.2c0,0.2,0,0.3,0.1,0.5c0,0.2,0,0.4,0,0.6c0,0.2,0,0.4,0,0.6c0,0.1,0,0.1,0,0.2c0,0.1,0,0.1,0,0.2
				c0,0.1,0,0.1,0,0.2c0,0.1,0,0.2,0,0.3c0,0.2-0.1,0.3-0.1,0.5c0,0.1,0,0.2-0.1,0.3c-0.1,0.4-0.2,0.7-0.3,1.1
				c-0.1,0.1-0.1,0.3-0.2,0.4c-0.1,0.1-0.1,0.3-0.2,0.4c-0.1,0.2-0.2,0.4-0.3,0.6c0,0.1-0.1,0.2-0.1,0.2c-0.1,0.2-0.3,0.5-0.5,0.7l0,0
				c-0.1,0-0.1-0.1-0.2-0.1c0,0,0,0,0,0c-0.1,0-0.1-0.1-0.2-0.1c0,0,0,0,0,0c-0.1,0-0.1-0.1-0.2-0.1c0,0,0,0,0,0c-0.1,0-0.1,0-0.2-0.1
				c0,0,0,0,0,0c-0.1,0-0.1,0-0.2-0.1c0,0,0,0,0,0c-0.1,0-0.1,0-0.2-0.1c0,0,0,0,0,0c-0.1,0-0.1,0-0.2-0.1c0,0,0,0,0,0
				c-0.1,0-0.1,0-0.2-0.1c0,0,0,0,0,0c-0.1,0-0.1,0-0.2,0c0,0,0,0,0,0c-0.1,0-0.1,0-0.2,0c0,0,0,0,0,0c-0.1,0-0.1,0-0.2,0l0,0
				c-0.1,0-0.1,0-0.2,0c0,0,0,0,0,0c-0.1,0-0.1,0-0.2,0c0,0,0,0,0,0c-0.1,0-0.2,0-0.2,0c0,0,0,0,0,0c-0.1,0-0.2,0-0.2,0c0,0,0,0,0,0
				c-0.1,0-0.1,0-0.2,0c0,0,0,0,0,0c-0.1,0-0.2,0-0.2,0l0,0c-0.1,0-0.2,0-0.2,0c0,0,0,0-0.1,0c-0.1,0-0.2,0-0.2,0l0,0c0,0-0.1,0-0.1,0
				c0,0-0.1,0-0.1,0c0,0,0,0-0.1,0c-0.1,0-0.2,0-0.2,0c0,0,0,0,0,0c-0.1,0-0.1,0-0.2,0c0,0,0,0-0.1,0c-0.1,0-0.2,0-0.2,0c0,0,0,0,0,0
				c-0.1,0-0.2,0-0.2,0c0,0,0,0-0.1,0c-0.1,0-0.1,0-0.2,0c0,0,0,0,0,0c-0.1,0-0.2,0-0.3,0c0,0,0,0-0.1,0c-0.1,0-0.1,0-0.2,0
				c0,0,0,0-0.1,0c-0.1,0-0.2,0-0.3,0c0,0,0,0-0.1,0c-0.1,0-0.1,0-0.2,0c0,0,0,0-0.1,0c-0.1,0-0.2,0-0.3,0c0,0,0,0,0,0
				c-0.1,0-0.1,0-0.2,0c0,0-0.1,0-0.1,0c-0.1,0-0.2,0-0.2,0c0,0,0,0,0,0c-0.1,0-0.2,0-0.3,0c0,0-0.1,0-0.1,0c-0.1,0-0.1,0-0.2,0
				c0,0,0,0-0.1,0c-0.1,0-0.2,0-0.3,0c0,0,0,0-0.1,0c-0.1,0-0.1,0-0.2,0c0,0,0,0-0.1,0c-0.1,0-0.2,0-0.3,0c0,0,0,0-0.1,0
				c-0.1,0-0.1,0-0.2,0c0,0-0.1,0-0.1,0c-0.1,0-0.2,0-0.3,0c0,0,0,0,0,0c-0.1,0-0.1,0-0.2,0c0,0-0.1,0-0.1,0c-0.1,0-0.1,0-0.2,0
				c0,0,0,0,0,0c-0.1,0-0.2,0-0.2,0.1c0,0-0.1,0-0.1,0c-0.1,0-0.1,0-0.2,0c0,0,0,0-0.1,0c-0.1,0-0.2,0-0.2,0.1c0,0,0,0-0.1,0
				c-0.1,0-0.1,0-0.2,0c0,0-0.1,0-0.1,0c-0.1,0-0.2,0-0.2,0.1c0,0,0,0-0.1,0c-0.1,0-0.1,0-0.2,0c0,0-0.1,0-0.1,0c-0.1,0-0.1,0-0.2,0.1
				c0,0,0,0,0,0c-0.1,0-0.1,0-0.2,0.1c0,0-0.1,0-0.1,0c-0.1,0-0.1,0-0.2,0c0,0,0,0-0.1,0c-0.1,0-0.1,0-0.2,0.1c0,0,0,0-0.1,0
				c-0.1,0-0.1,0-0.2,0c0,0,0,0-0.1,0c-0.1,0-0.1,0-0.2,0.1c0,0,0,0-0.1,0c-0.1,0-0.1,0-0.2,0c0,0,0,0-0.1,0c-0.1,0-0.1,0-0.2,0.1
				c0,0,0,0,0,0c-0.1,0-0.1,0-0.2,0c0,0,0,0-0.1,0c-0.1,0-0.1,0-0.2,0c0,0,0,0,0,0c-0.1,0-0.1,0-0.2,0.1c0,0,0,0-0.1,0c0,0-0.1,0-0.1,0
				c0,0,0,0-0.1,0c-0.1,0-0.1,0-0.2,0.1c0,0,0,0-0.1,0c0,0-0.1,0-0.1,0c0,0,0,0-0.1,0c-0.1,0-0.1,0-0.2,0.1c0,0,0,0,0,0
				c0,0-0.1,0-0.1,0c0,0,0,0-0.1,0c-0.1,0-0.1,0-0.2,0.1c0,0,0,0,0,0c-0.2,0.1-0.5,0.2-0.7,0.2c-0.7,0.2-1.3,0.5-2,0.7
				c-0.1,0-0.1,0.1-0.2,0.1l0,0c-0.1,0-0.2,0.1-0.3,0.1c-0.1,0-0.2,0.1-0.3,0.1l0,0c0,0,0,0,0,0c-0.1,0-0.2,0.1-0.3,0.1
				c-0.1,0-0.2,0.1-0.3,0.1c-0.1,0.1-0.3,0.1-0.4,0.2c-0.9,0.4-1.8,0.8-2.6,1.2c-0.3,0.1-0.6,0.3-0.9,0.4c-0.3,0.2-0.6,0.3-0.9,0.5
				c-0.5,0.3-1,0.5-1.5,0.8c-0.4,0.2-0.8,0.5-1.2,0.7c-0.1,0.1-0.2,0.1-0.3,0.2c-0.1,0.1-0.2,0.1-0.3,0.2c-0.1,0-0.1,0.1-0.2,0.1
				c-0.2,0.1-0.4,0.2-0.6,0.4c-0.1,0.1-0.2,0.1-0.3,0.2c-0.1,0.1-0.2,0.1-0.3,0.2c-0.2,0.1-0.3,0.2-0.5,0.4c-0.3,0.2-0.7,0.5-1,0.7
				c-0.1,0.1-0.3,0.2-0.4,0.3c-0.1,0.1-0.2,0.1-0.2,0.2c-0.2,0.1-0.3,0.2-0.5,0.3c-0.1,0.1-0.2,0.1-0.3,0.2c-0.1,0.1-0.1,0.1-0.2,0.2
				c0,0,0,0,0,0c-0.2,0.1-0.4,0.3-0.5,0.4c-0.1,0-0.1,0.1-0.2,0.1c-0.4,0.4-0.9,0.7-1.3,1.1c0,0-0.1,0.1-0.1,0.1
				c-0.4,0.4-0.9,0.8-1.3,1.2c0,0,0,0,0,0c-2.2,2.1-4.1,4.4-5.7,6.7c0,0,0,0.1-0.1,0.1c-0.1,0.2-0.2,0.4-0.4,0.6c0,0,0,0.1-0.1,0.1
				c-0.2,0.3-0.3,0.5-0.5,0.8c-0.1,0.1-0.1,0.2-0.2,0.3c0,0,0,0,0,0.1c-0.7,1.4-1.3,2.7-1.8,4.1l0,0c-0.1,0.2-0.1,0.4-0.2,0.6
				c0,0.1-0.1,0.2-0.1,0.3c0,0.2-0.1,0.3-0.1,0.5c0,0.2-0.1,0.4-0.1,0.5c-0.2,1-0.3,2-0.4,3c0,0.1,0,0.2,0,0.2c0,0,0,0.1,0,0.1
				c0,0,0,0.1,0,0.1c0,0.5,0,1,0.1,1.5c0,0.1,0,0.3,0.1,0.4c0,0.1,0,0.1,0,0.2c0,0.1,0.1,0.3,0.1,0.4c0.4,2,1.3,3.9,2.5,5.6
				c0.1,0.2,0.2,0.3,0.4,0.5c0.2,0.3,0.4,0.5,0.7,0.8c0,0,0,0,0,0c0,0,0,0,0,0c0.3,0.3,0.5,0.5,0.8,0.8c0.5,0.4,1,0.8,1.5,1.2
				c2.1,1.4,4.7,2.5,7.5,3.3c0.2,0,0.4,0.1,0.6,0.1c0.2,0,0.3,0.1,0.5,0.1c0.3,0.1,0.6,0.1,0.8,0.2c0.2,0,0.5,0.1,0.8,0.1
				c1.8,0.3,3.6,0.5,5.6,0.6c0,0,0.1,0,0.1,0c0.1,0,0.3,0,0.4,0c0.1,0,0.2,0,0.3,0c0.1,0,0.2,0,0.2,0l0,0c0.1,0,0.1,0,0.2,0
				c0,0,0,0,0,0c0.2,0,0.3,0,0.5,0c0,0,0.1,0,0.1,0c0,0,0,0,0.1,0c0.1,0,0.3,0,0.4,0c0,0,0.1,0,0.1,0c0.2,0,0.3,0,0.5,0c0,0,0,0,0.1,0
				c0.2,0,0.3,0,0.5,0l0,0c0.5,0,1-0.1,1.5-0.1c0.1,0,0.3,0,0.4,0c0.2,0,0.4,0,0.6-0.1c0.1,0,0.2,0,0.2,0c2.4-0.3,4.2-0.7,5.7-1.1
				c0.1,0,0.1,0,0.2-0.1c1-0.3,1.9-0.6,2.7-0.9l1.1-0.4l0.5-0.2l1.9-0.7l0,0c0,0,0,0,0.1,0c0,0,0,0,0,0c0,0,0,0,0.1,0l0,0c0,0,0,0,0,0
				c0,0,0,0,0.1,0c0,0,0,0,0,0c0,0,0.1,0,0.1,0l0,0c0,0,0,0,0.1,0c0,0,0,0,0,0c0,0,0,0,0.1,0l0,0c0,0,0,0,0.1,0c0,0,0,0,0,0
				c0,0,0,0,0.1,0c0,0,0,0,0,0c0,0,0,0,0,0c0,0,0,0,0,0c0,0,0,0,0,0c0,0,0,0,0,0c0,0,0,0,0,0c0,0,0,0,0,0c0,0,0,0,0.1,0c0,0,0,0,0,0
				c0,0,0,0,0,0c0,0,0,0,0,0c0,0,0,0,0,0c0,0,0,0,0,0c0,0,0,0,0,0c0,0,0,0,0,0c0,0,0,0,0,0c0,0,0,0,0,0c0,0,0,0,0.1,0c0,0,0,0,0,0
				c0,0,0,0,0,0c0,0,0,0,0,0c0,0,0,0,0,0c0,0,0,0,0,0c0,0,0,0,0,0c0,0,0,0,0,0c0,0,0,0,0,0c0,0,0,0,0,0c0,0,0,0,0,0.1c0,0,0,0,0,0
				c0,0,0,0,0,0.1c0,0,0,0,0,0c0,0,0,0,0,0c0,0,0,0,0,0c0,0,0,0,0,0c0,0,0,0,0,0c0,0,0,0,0,0c0,0,0,0,0,0c0,0,0,0,0,0.1c0,0,0,0,0,0
				c0,0,0,0,0,0.1C75.8,65,75.8,65,75.9,65.1C75.8,65,75.8,65.1,75.9,65.1C75.9,65.1,75.9,65.1,75.9,65.1z M100.8,55.7
				c-0.1,0.2-0.2,0.3-0.3,0.5c0,0.1-0.1,0.2-0.1,0.3c0,0.1-0.1,0.2-0.1,0.2c-0.1,0.1-0.1,0.2-0.2,0.3c0,0.1-0.1,0.2-0.1,0.3
				c-0.1,0.3-0.3,0.5-0.5,0.8c-0.1,0.1-0.1,0.2-0.2,0.3c-0.1,0.2-0.2,0.3-0.3,0.5s-0.2,0.3-0.3,0.5c-0.1,0.2-0.2,0.3-0.3,0.5
				c-3.2,4.4-8.1,8.5-14.2,11.7L82.9,72l-0.4,0.2l0,0c0,0-0.1,0-0.1,0c0,0,0,0,0,0c0,0-0.1,0-0.1,0c0,0,0,0,0,0c0,0-0.1,0-0.1,0
				c0,0,0,0,0,0c0,0-0.1,0-0.1,0l0,0c0,0-0.1,0-0.1,0l0,0c0,0,0,0-0.1,0l0,0c0,0-0.1,0-0.1,0l0,0c0,0-0.1,0-0.1,0l0,0c0,0,0,0-0.1,0
				c0,0,0,0,0,0c0,0-0.1,0-0.1,0c0,0,0,0,0,0c0,0-0.1,0-0.1,0l0,0l0,0c0,0,0,0-0.1,0l0,0c0,0,0,0-0.1,0l0,0c0,0,0,0-0.1,0c0,0,0,0,0,0
				c0,0,0,0-0.1,0c0,0,0,0,0,0c0,0,0,0-0.1,0c0,0,0,0,0,0c0,0,0,0-0.1,0c0,0,0,0,0,0c0,0,0,0-0.1,0l0,0c0,0,0,0-0.1,0c0,0,0,0,0,0
				c0,0,0,0-0.1,0c0,0,0,0,0,0c0,0,0,0-0.1,0c0,0,0,0,0,0c0,0,0,0-0.1-0.1c0,0,0,0,0,0c0,0,0,0-0.1-0.1c0,0,0,0,0,0c0,0,0,0-0.1-0.1
				c0,0,0,0,0,0c0,0,0,0,0-0.1c0,0,0,0,0,0c0,0,0,0,0-0.1c0,0,0,0,0,0c0,0,0,0,0-0.1c0,0,0,0,0,0c0,0,0,0,0-0.1c0,0,0,0,0,0
				c0,0,0,0,0-0.1c0,0,0,0,0,0c0,0,0,0,0-0.1c0,0,0,0,0,0c0,0,0,0,0-0.1c0,0,0,0,0,0c0,0,0,0,0-0.1c0,0,0,0,0,0c0,0,0,0,0-0.1
				c0,0,0,0,0,0c0,0,0-0.1,0-0.1c0,0,0,0,0,0c0,0,0-0.1,0-0.1l0,0c0,0,0-0.1,0-0.1c0,0,0,0,0,0c0,0,0-0.1,0-0.1c0,0,0,0,0,0
				c0,0,0-0.1,0-0.1c0,0,0,0,0,0c0,0,0-0.1,0-0.1c0,0,0,0,0,0c0,0,0-0.1,0-0.1l1.9-8.9l0.1-0.6l0.3-1.5c0,0,0-0.1,0-0.1
				c0-0.1,0-0.1,0-0.2c0,0,0,0,0,0c0-0.1,0-0.1,0.1-0.2c0,0,0-0.1,0.1-0.1c0,0,0-0.1,0.1-0.1c0.1-0.1,0.1-0.2,0.2-0.2
				c2.5-2.2,4.3-4.6,5.2-6.9c0.1-0.2,0.1-0.3,0.2-0.5c0.1-0.2,0.1-0.3,0.2-0.5c0-0.2,0.1-0.3,0.1-0.5c0-0.2,0.1-0.4,0.1-0.6
				c0-0.3,0.1-0.6,0.1-1c0-0.4,0-0.9,0-1.3c0,0,0-0.1,0-0.1c0-0.1,0-0.2,0-0.3c0-0.1,0-0.1,0-0.2c-0.3-2-1.4-3.7-3.2-5.2
				c-1.2-0.9-2.6-1.7-4.3-2.3c-0.4-0.1-0.8-0.3-1.3-0.4c-0.1,0-0.3-0.1-0.4-0.1c-0.2-0.1-0.4-0.1-0.7-0.2c-0.1,0-0.3-0.1-0.4-0.1
				c-0.2-0.1-0.5-0.1-0.7-0.2c-0.3,0-0.5-0.1-0.8-0.1c-0.6-0.1-1.3-0.2-2-0.2c-0.2,0-0.5,0-0.7-0.1c-0.3,0-0.6,0-0.9,0h0
				c-0.1,0-0.3,0-0.4,0c0,0-0.1,0-0.1,0c-0.1,0-0.3,0-0.4,0l0,0c0,0,0,0,0,0c-0.2,0-0.3,0-0.5,0l0,0c-0.2,0-0.3,0-0.5,0c0,0,0,0-0.1,0
				c-0.2,0-0.3,0-0.5,0c0,0-0.1,0-0.1,0c-0.1,0-0.3,0-0.4,0c0,0,0,0-0.1,0c-0.2,0-0.3,0-0.5,0c0,0,0,0-0.1,0c-0.2,0-0.3,0-0.5,0l0,0
				c-0.2,0-0.3,0-0.5,0.1c0,0,0,0-0.1,0c-0.1,0-0.3,0-0.4,0.1c0,0,0,0-0.1,0c-0.1,0-0.3,0-0.4,0.1c0,0,0,0-0.1,0c-0.1,0-0.3,0-0.4,0.1
				c0,0,0,0-0.1,0c-0.2,0-0.3,0.1-0.5,0.1l0,0c-0.2,0-0.3,0.1-0.5,0.1c0,0,0,0-0.1,0c-0.1,0-0.3,0.1-0.4,0.1c0,0,0,0-0.1,0
				c-0.1,0-0.3,0.1-0.4,0.1c0,0,0,0-0.1,0c-0.1,0-0.3,0.1-0.4,0.1c0,0,0,0-0.1,0c-0.1,0-0.3,0.1-0.4,0.1l0,0l0,0l0,0c0,0-1,0.2-1.6,0.4
				c0,0,0,0-0.1,0c0,0,0,0-0.1,0c-0.1,0-0.1,0-0.2,0.1c-0.1,0-0.1,0-0.2,0c-0.4,0.1-0.8,0.2-1.1,0.3c-0.2,0.1-0.4,0.2-0.6,0.3
				c0,0,0,0-0.1,0.1c-0.1,0-0.1,0.1-0.2,0.2c0,0.1-0.1,0.1-0.1,0.2c0,0,0,0.1-0.1,0.1c-0.1,0.1-0.1,0.2-0.1,0.3c0,0-2.6,15-3.3,17.5
				c0,0,0,0,0,0c0,0,0,0,0,0c0,0,0,0,0,0c0,0,0,0,0,0c0,0,0,0,0,0c0,0.1-0.1,0.2-0.1,0.3c-0.1,0.4-0.4,0.9-0.9,1.5
				c-0.6,0.7-1.4,1.3-2.6,1.4c0,0,0,0-0.1,0c0,0-0.1,0-0.1,0l0,0c0,0-0.1,0-0.1,0c0,0,0,0,0,0c0,0-0.1,0-0.1,0l0,0c0,0-0.1,0-0.2,0
				c0,0,0,0,0,0c0,0-0.1,0-0.1,0c0,0,0,0,0,0c0,0-0.1,0-0.1,0c0,0,0,0,0,0c0,0-0.1,0-0.1,0l0,0c0,0-0.1,0-0.1,0c0,0,0,0,0,0
				c0,0-0.1,0-0.1,0l0,0c0,0-0.1,0-0.1,0l0,0c0,0-0.1,0-0.1,0c0,0,0,0,0,0c0,0-0.1,0-0.1,0l0,0c0,0-0.1,0-0.1,0c0,0,0,0,0,0
				c0,0-0.1,0-0.1,0l0,0c0,0-0.1,0-0.1,0l0,0c0,0-0.1,0-0.1,0c0,0,0,0,0,0c0,0,0,0,0,0c0,0-0.1,0-0.1,0l0,0c0,0-0.1,0-0.1,0
				c0,0,0,0,0,0c0,0-0.1,0-0.1,0c0,0,0,0,0,0c0,0-0.1,0-0.1,0c0,0,0,0,0,0c0,0-0.1,0-0.1,0c0,0,0,0,0,0c0,0-0.1,0-0.1,0c0,0,0,0,0,0
				c0,0,0,0-0.1,0c0,0,0,0,0,0c0,0-0.1,0-0.1,0l0,0c-0.1,0-0.2,0-0.3,0l0,0c0,0-0.1,0-0.1,0c-0.2,0-0.3-0.1-0.5-0.1c0,0,0,0,0,0
				c-0.1,0-0.1,0-0.2,0c0,0-0.1,0-0.1,0c-0.1,0-0.1,0-0.2,0c0,0-0.1,0-0.1,0c-0.1,0-0.1,0-0.2,0c0,0-0.1,0-0.1,0c0,0-0.1,0-0.1,0
				c0,0-0.1,0-0.1,0c0,0-0.1,0-0.1,0c0,0-0.1,0-0.1-0.1c0,0,0,0-0.1,0c0,0-0.1,0-0.1-0.1c0,0,0,0-0.1,0c-1.4-0.6-2-1.4-2-1.4
				s0.4-0.5,0.9-1.3c0.4-0.6,0.6-1.5,0.9-2.6c0-0.2,0.1-0.3,0.1-0.5c0-0.2,0.1-0.4,0.1-0.5c0-0.1,0.1-0.2,0.1-0.4
				c0-0.1,0.1-0.3,0.1-0.4c0.1-0.2,0.1-0.4,0.2-0.6c0,0,0,0,0-0.1c0,0,0-0.1,0-0.2c0,0,0,0,0-0.1c0-0.1,0-0.1,0.1-0.2c0,0,0-0.1,0-0.2
				c0-0.1,0-0.2,0.1-0.3c0.1-0.2,0.1-0.4,0.2-0.7c0-0.1,0.1-0.3,0.1-0.4c0-0.1,0-0.2,0.1-0.3c0-0.2,0.1-0.4,0.2-0.6
				c0-0.2,0.1-0.4,0.1-0.6c0-0.1,0-0.1,0.1-0.2c0-0.2,0.1-0.3,0.1-0.5c1-4.5,2.5-11.2,3.3-14.2c0.2-0.9,0.4-1.4,0.4-1.5
				c0,0,0-0.1,0-0.1c0-0.1,0.1-0.2,0.1-0.3c0.1-0.1,0.1-0.3,0.2-0.4c0-0.1,0.1-0.1,0.1-0.2c0,0,0,0,0.1-0.1c0.2-0.1,0.3-0.3,0.6-0.3
				l1.8-0.7l1.2-0.5l5-1.6c0,0,0,0,0,0c0.1,0,0.2-0.1,0.3-0.1c0,0,0,0,0,0c0,0,0.1,0,0.1,0c0.1,0,0.2,0,0.3-0.1c0.1,0,0.1,0,0.2,0
				c0.1,0,0.2,0,0.2-0.1c0.1,0,0.1,0,0.2,0c0.1,0,0.2,0,0.2-0.1c0.1,0,0.1,0,0.2,0c0.1,0,0.2,0,0.2-0.1c0.1,0,0.1,0,0.2,0
				c0.1,0,0.2,0,0.2-0.1c0.1,0,0.1,0,0.2,0c0.1,0,0.2,0,0.2-0.1c0.1,0,0.1,0,0.2,0c0.1,0,0.2,0,0.2-0.1c0.1,0,0.1,0,0.2,0
				c0.1,0,0.2,0,0.3-0.1c0,0,0.1,0,0.1,0c0.1,0,0.3-0.1,0.4-0.1c0,0,0,0,0,0c0.1,0,0.3,0,0.4-0.1c0,0,0.1,0,0.1,0c0.1,0,0.2,0,0.3,0
				c0.1,0,0.1,0,0.2,0c0.1,0,0.2,0,0.3,0c0.1,0,0.1,0,0.2,0c0.1,0,0.2,0,0.2,0c0.1,0,0.1,0,0.2,0c0.1,0,0.2,0,0.2,0c0.1,0,0.1,0,0.2,0
				c0.1,0,0.2,0,0.2,0c0.1,0,0.1,0,0.2,0c0.1,0,0.2,0,0.3,0c0.1,0,0.1,0,0.2,0c0.1,0,0.2,0,0.3,0c0.1,0,0.1,0,0.2,0c0.1,0,0.2,0,0.3,0
				c0,0,0.1,0,0.1,0c0.1,0,0.3,0,0.4,0l0,0c0.1,0,0.3,0,0.4,0c0,0,0.1,0,0.1,0c0.1,0,0.2,0,0.3,0c0.1,0,0.1,0,0.2,0c0.1,0,0.2,0,0.3,0
				c0.1,0,0.1,0,0.2,0c0.1,0,0.2,0,0.3,0c0.1,0,0.1,0,0.2,0c0.1,0,0.2,0,0.3,0c0.1,0,0.1,0,0.2,0c0.1,0,0.2,0,0.3,0c0.1,0,0.1,0,0.2,0
				c0.1,0,0.2,0,0.3,0c0.1,0,0.1,0,0.2,0c0.1,0,0.2,0,0.3,0c0.1,0,0.1,0,0.2,0c0.1,0,0.2,0,0.3,0c0,0,0.1,0,0.1,0c0.1,0,0.3,0,0.4,0
				c0,0,0.1,0,0.1,0c0.1,0,0.2,0,0.3,0c0,0,0.1,0,0.1,0c0.1,0,0.3,0,0.4,0c7.7,0.2,14.5,2.3,19.2,5.9c2.4,1.8,4.3,4.1,5.4,6.6
				c0.3,0.6,0.5,1.2,0.7,1.8c0,0.1,0.1,0.2,0.1,0.3c0.5,1.7,0.8,3.6,0.7,5.5c-0.1,2.3-0.6,4.5-1.5,6.8C101,55,100.9,55.3,100.8,55.7z"
				/>
        </symbol>
	</defs>
</svg>
